<?xml version="1.0" encoding="UTF-8"?>
<svg width="300" height="250" xmlns="http://www.w3.org/2000/svg">
 <g>
  <title>Layer 1</title>
  <g id="svg_32">
   <path id="svg_33" d="m52.299641,218.334534c3.585999,-1.343002 6.268002,-4.152008 8.532001,-7.156998c5.248001,4.050995 11.488998,3.699997 17.756996,6.966003c4.274002,2.218994 7.486,5.770996 9.979004,9.794998c-2.961998,11.651001 -80.101,11.651001 -83.060999,0.00499c2.490001,-4.029999 5.702,-7.580994 9.979,-9.800995c6.264999,-3.265991 12.505999,-2.914993 17.754,-6.966003c2.266998,3.005005 4.93,5.813004 8.531998,7.157013c2.717999,1.020996 7.810001,1.020996 10.528,0.000992l0,0zm3.188999,-53.488998c4.675003,0.141006 7.392998,2.998993 8.863998,6.479996c1.219002,2.867004 1.688004,6.59201 1.488998,9.785004c1.633003,2.225006 1.646004,6.337006 1.404007,8.684006c-0.268005,2.688995 -1.258003,7.466995 -3.897003,9.054993c-1.274002,5.210999 -5.452999,10.06601 -10.34,13.024002c-3.749001,2.261993 -7.996002,2.457993 -11.945999,0.223007c-5.076,-2.87001 -9.387001,-7.906006 -10.701,-13.247009c-2.636002,-1.58699 -3.629002,-6.365997 -3.897003,-9.054993c-0.238998,-2.347 -0.228996,-6.459 1.407001,-8.684006c-0.293999,-4.804993 0.48,-10.809998 4.192001,-14.212997c5.917,-5.421005 17.25,-6.600006 22.070999,-2.570007c0.549,0.412003 0.549,0.509995 1.354,0.518005l0,0zm-21.498001,17.231995c0.040001,-1.447006 0.535999,-1.460007 1.728001,-1.112c3.242001,0.953003 17.799999,-1.764999 21.256001,-3.311005c0.599998,-0.269989 1.163002,-0.442993 1.688004,0.169998c0.280998,0.324005 0.450996,0.794006 0.586998,1.282013c0.334,1.281998 0.403,3.082001 0.495995,4.424988c0.027,0.319 0.040001,0.589005 0.053001,0.759003c0.106003,1.009003 0.401001,1.061996 0.709,0.844009c0.376999,-0.281006 0.562004,-0.674011 0.764,-1.078003c0.483002,-0.923996 1.017006,-1.475998 1.553001,-1.475998c1.245003,0 1.943001,3.08699 1.540001,6.893997c-0.374001,3.80899 -1.698997,6.893997 -2.946999,6.893997c-0.318001,-0.009995 -0.523003,0.164993 -0.585999,0.526001c-1.112,5.343994 -4.781002,9.964996 -8.976002,12.352005c-3.576,2.024994 -5.824001,2.131989 -9.695,0.151001c-4.370003,-2.230011 -8.145,-7.035004 -9.268002,-12.503006c-0.082001,-0.361008 -0.280998,-0.535995 -0.603001,-0.526001c-1.244999,0 -2.571999,-3.085007 -2.959999,-6.893997c-0.374001,-3.807007 0.307999,-6.893997 1.553001,-6.893997c0.603001,0 1.217999,0.713989 1.740997,1.878998c0.295002,0.578995 0.895,1.233994 1.176003,0.647995c0.151001,-0.29599 0.178001,-2.537003 0.190998,-3.029999l0,0z" fill="#58595B" clip-rule="evenodd" fill-rule="evenodd"/>
   <path id="svg_34" d="m254.436646,224.498535c7.700989,-3.763992 12.509003,-8.145004 15.134003,-12.988998c5.356995,2.279999 10.419006,5.173996 15.011993,8.800003c3.843994,3.037003 7.125,6.410995 9.910004,10.036987c-8.437012,8.307007 -71.690994,8.307007 -80.128006,0c2.785004,-3.625992 6.065002,-7 9.92601,-10.036987c4.565994,-3.626007 9.627991,-6.520004 14.998001,-8.800003c2.638992,4.845001 7.446991,9.224991 15.147995,12.988998l0,0zm-13.916,-31.834c0.251999,3.203995 1.020004,6.274994 2.115997,8.345993c1.781006,3.345001 4.662003,5.999008 8.840012,8.267014c1.970001,1.156998 3.897003,1.156998 5.867004,0c4.177979,-2.267014 7.071991,-4.922012 8.823975,-8.267014c0.738007,-1.36499 1.312012,-3.169998 1.699005,-5.154999c0.053009,-0.233994 0.13501,-0.259995 0.364014,-0.268997c1.191986,0 2.466003,-2.901001 2.839996,-6.479996c0.373993,-3.572998 -0.311005,-6.477005 -1.5,-6.477005c-0.496002,0 -1.019989,0.518005 -1.485992,1.388c-0.430023,0.820007 -0.844025,1.421005 -1.447021,0.693008c-0.804993,-0.987 -1.085999,-2.782013 -1.552979,-4.152008c-0.874023,-2.526993 -1.946014,-2.177002 -3.324005,-1.194992c-10.65802,7.624985 -22.190002,5.909988 -21.240005,13.300995l0,0zm8.009003,-30.126007c-6.173996,1.565994 -11.800003,5.632996 -14.371994,12.397995c-0.884003,2.315002 -1.258011,4.715012 -1.417999,7.087997c-0.805008,12.411011 1.151993,22.432007 -6.522003,34.402008c3.949997,-2.748001 8.196991,-5.033005 12.643997,-6.897003l1.126007,-0.474991c0.801987,0.865997 2.115997,2.373993 3.19899,2.911987c0.374008,0.19101 1.261002,-2.215988 1.488998,-3.709c0,-0.00499 0.064011,0.064011 0.093002,0.074005c1.593002,1.369995 3.318008,2.570007 5.085999,3.548996c3.069,1.805008 6.041992,1.805008 9.108002,0c1.768005,-0.978989 3.496002,-2.179001 5.088989,-3.548996c0.027008,-0.009995 0.093018,-0.080002 0.093018,-0.074005c0.227997,1.492004 1.11499,3.900009 1.488983,3.709c1.083008,-0.539001 2.397003,-2.04599 3.199005,-2.911987l1.126007,0.474991c4.446991,1.863998 8.69101,4.149002 12.644012,6.897003c-8.131012,-12.888 -5.718018,-21.990997 -6.525024,-34.402008c-0.158997,-2.372986 -0.533997,-4.772995 -1.406982,-7.087997c-1.136017,-2.964996 -2.473999,-5.404999 -4.658997,-7.350998c-2.209015,-1.964996 -6.813995,-4.807999 -10.406006,-3.445999c-3.494019,-1.764999 -6.44101,-2.770996 -11.076004,-1.600998l0,0z" fill="#58595B" clip-rule="evenodd" fill-rule="evenodd"/>
   <path id="svg_35" d="m192.654648,70.384529l-0.132996,-1.736c-0.281006,-4.380005 -2.344009,-8.999001 -5.518997,-12.195c-4.754013,-4.784 -10.834,-3.589001 -17.128006,-6.313c-1.406998,-0.610001 -2.787994,-1.390999 -4.139008,-2.511002c-2.733994,7.651001 -4.714996,13.746002 -9.60199,20.632l-1.085007,-12.537998c0.281006,-0.098 0.470001,-0.358002 0.494003,-0.660999l0.376999,-4.359001c0.026001,-0.384998 -0.348007,-0.733002 -0.751007,-0.706001c-1.793991,0.377003 -3.53299,0.385002 -5.313995,0c-0.403,-0.027 -0.791,0.329002 -0.751999,0.706001l0.375,4.359001c0.026001,0.294998 0.214996,0.563 0.494003,0.660999l-1.083008,12.537998c-4.886993,-6.885998 -6.867996,-12.980999 -9.61499,-20.632c-1.354004,1.120003 -2.718002,1.901001 -4.126007,2.511002c-6.293991,2.723999 -12.375992,1.528999 -17.127998,6.313c-3.187996,3.195999 -5.25,7.820999 -5.531998,12.195c-0.040001,0.579002 -0.080002,1.157997 -0.122002,1.741997c3.937004,5.060005 22.074005,7.635002 40.154007,7.720001c18.06398,-0.085999 36.184982,-2.660995 40.134995,-7.725998l0,0zm-51.081009,-48.354998c0.029007,-1.232 0.455994,-1.245001 1.475998,-0.947001c2.744995,0.807001 15.117996,-1.5 18.065002,-2.813999c0.509995,-0.234001 0.990005,-0.377001 1.436005,0.143c0.225998,0.275999 0.388,0.674 0.494003,1.091c0.278992,1.091 0.347992,2.625 0.413986,3.762001c0.029007,0.275999 0.040009,0.504 0.053009,0.646999c0.093002,0.860001 0.350998,0.905001 0.602997,0.716999c0.320999,-0.238998 0.470001,-0.570999 0.656006,-0.917999c0.403,-0.782999 0.873993,-1.253 1.313995,-1.253c1.059998,0 1.645996,2.628 1.311996,5.864c-0.320999,3.236 -1.446991,5.858 -2.502991,5.858c-0.268005,-0.005001 -0.443008,0.141003 -0.51001,0.445999c-0.936996,4.545002 -4.05899,8.474003 -7.621994,10.499001c-3.040009,1.729 -4.951004,1.818001 -8.248001,0.132999c-3.710999,-1.892998 -6.910004,-5.980999 -7.889999,-10.632c-0.053009,-0.304996 -0.227997,-0.451 -0.507004,-0.445999c-1.046005,0 -2.168991,-2.622999 -2.503006,-5.858c-0.32399,-3.236 0.252014,-5.864 1.325012,-5.864c0.509995,0 1.029999,0.610001 1.470993,1.601c0.257004,0.486 0.766998,1.049 1.005997,0.550001c0.134003,-0.256001 0.147003,-2.156 0.158005,-2.579l0,0zm18.268997,-14.648c3.979004,0.12 6.294006,2.546 7.541992,5.509c1.030014,2.436999 1.431,5.604 1.258011,8.32c1.390991,1.886999 1.406998,5.377998 1.203003,7.385c-0.239014,2.280001 -1.083008,6.341999 -3.320999,7.693001c-1.070007,4.432999 -4.619003,8.556 -8.784012,11.07c-3.187988,1.926998 -6.804001,2.091999 -10.166992,0.192997c-4.311005,-2.437 -7.979996,-6.720997 -9.09201,-11.264c-2.234985,-1.350998 -3.079987,-5.412998 -3.304993,-7.692999c-0.218002,-2.006998 -0.188004,-5.497999 1.188995,-7.385c-0.241989,-4.085999 0.403,-9.196 3.562012,-12.087c5.038986,-4.607999 14.664993,-5.604 18.762985,-2.185c0.483017,0.354001 0.468018,0.434001 1.152008,0.444001l0,0z" fill="#58595B" clip-rule="evenodd" fill-rule="evenodd"/>
   <path id="svg_36" d="m222.012634,182.061539c-30.30899,-34.755005 -41.035995,-55.710007 -52.888992,-92.048004l-2.583008,-1.486h-30.320999l-2.571991,1.486c-14.182007,37.265999 -27.189003,60.945999 -53.624001,92.878998v2.975998l15.160995,26.261993c0.534004,0.921005 1.513,1.484009 2.585999,1.484009h18.774002c3.884003,17.960999 18.000999,31.287994 34.849998,31.287994c16.834,0 30.951004,-13.325989 34.835007,-31.287994h18.789993c1.056,0 2.035995,-0.563004 2.570007,-1.484009l14.759995,-25.571991c0.268005,-0.453995 0.401001,-0.966003 0.401001,-1.488998v-1.059006c-0.003006,-0.718002 -0.270996,-1.412994 -0.738007,-1.94899zm-120.709991,-0.44101c-0.775002,-0.153992 -1.459999,-0.604996 -1.887001,-1.263992l-0.242004,-0.361008c-0.910995,-1.358994 -0.549995,-3.209 0.817001,-4.119995l7.970001,-5.331009c0.654999,-0.435989 1.457001,-0.595001 2.235001,-0.437988c0.764999,0.151001 1.459999,0.608002 1.888,1.261002l0.241997,0.360992c0.913002,1.365005 0.549004,3.212006 -0.814995,4.123001l-7.969002,5.328003c-0.656998,0.438004 -1.461998,0.599991 -2.238998,0.440994zm8.290001,6.481995l-0.228004,-0.360992c-0.907997,-1.367004 -0.546997,-3.212006 0.82,-4.126007l7.969002,-5.324997c1.363998,-0.912994 3.211998,-0.543991 4.121994,0.822998l0.14801,0.21701l0.093002,0.138c0.90799,1.369995 0.533997,3.21199 -0.818008,4.125992l-2.396996,1.602997l-5.586006,3.722c-1.350998,0.909012 -3.195999,0.548004 -4.122993,-0.817001zm15.362999,7.869003l-7.970001,5.331009c-0.456001,0.291992 -0.950005,0.445999 -1.445999,0.477997c-1.029999,0.074997 -2.074005,-0.376999 -2.679001,-1.298004l-0.254997,-0.363998c-0.427002,-0.656006 -0.587006,-1.459991 -0.441002,-2.229996c0.159996,-0.775009 0.615997,-1.455002 1.271996,-1.895996l3.082001,-2.049011l4.887001,-3.276001c0.656006,-0.440002 1.460007,-0.595001 2.238007,-0.440002c0.761993,0.154007 1.446991,0.608002 1.886993,1.264008l0.238998,0.360992c0.914001,1.364014 0.550003,3.209015 -0.813995,4.119003zm35.824997,-86.738998c0,-1.642998 1.324997,-2.975998 2.973007,-2.975998h0.429993c1.647995,0 2.973007,1.332001 2.973007,2.975998v9.586006c0,1.648994 -1.325012,2.973999 -2.973007,2.973999h-0.429993c-1.64801,0 -2.973007,-1.325005 -2.973007,-2.973999v-9.586006l0,0zm-12.093002,4.174004c0,-1.646004 1.324997,-2.979004 2.958008,-2.979004h0.445999c1.645996,0 2.970993,1.332001 2.970993,2.979004v9.583c0,1.640999 -1.324997,2.973 -2.970993,2.973h-0.445999c-1.633011,0 -2.958008,-1.333 -2.958008,-2.973v-9.583l0,0zm-12.108002,-4.174004c0,-1.642998 1.325012,-2.975998 2.973007,-2.975998h0.427994c1.645004,0 2.975998,1.332001 2.975998,2.975998v9.586006c0,1.648994 -1.329987,2.973999 -2.975998,2.973999h-0.427994c-1.647995,0 -2.973007,-1.325005 -2.973007,-2.973999v-9.586006l0,0zm6.212006,121.207001c0,0.621002 -0.507004,1.130997 -1.136002,1.130997h-4.445999c-0.628998,0 -1.138992,-0.509995 -1.138992,-1.130997v-3.429993c0,-0.626007 0.509995,-1.136002 1.138992,-1.136002h4.445999c0.628998,0 1.136002,0.509995 1.136002,1.136002v3.429993l0,0zm0,-10.119003c0,0.626007 -0.507004,1.131012 -1.136002,1.131012h-4.445999c-0.628998,0 -1.138992,-0.504013 -1.138992,-1.131012v-3.429993c0,-0.626999 0.509995,-1.126007 1.138992,-1.126007h4.445999c0.628998,0 1.136002,0.499008 1.136002,1.126007v3.429993l0,0zm11.949005,10.119003c0,0.621002 -0.51001,1.130997 -1.126007,1.130997h-4.459991c-0.616013,0 -1.126007,-0.509995 -1.126007,-1.130997v-3.429993c0,-0.626007 0.509995,-1.136002 1.126007,-1.136002h4.459991c0.615997,0 1.126007,0.509995 1.126007,1.136002v3.429993l0,0zm0,-10.119003c0,0.626007 -0.51001,1.131012 -1.126007,1.131012h-4.459991c-0.616013,0 -1.126007,-0.504013 -1.126007,-1.131012v-3.429993c0,-0.626999 0.509995,-1.126007 1.126007,-1.126007h4.459991c0.615997,0 1.126007,0.499008 1.126007,1.126007v3.429993l0,0zm11.959991,10.119003c0,0.621002 -0.509995,1.130997 -1.138992,1.130997h-4.460007c-0.612991,0 -1.121994,-0.509995 -1.121994,-1.130997v-3.429993c0,-0.626007 0.509995,-1.136002 1.121994,-1.136002h4.460007c0.628998,0 1.138992,0.509995 1.138992,1.136002v3.429993l0,0zm0,-10.119003c0,0.626007 -0.509995,1.131012 -1.138992,1.131012h-4.460007c-0.612991,0 -1.121994,-0.504013 -1.121994,-1.131012v-3.429993c0,-0.626999 0.509995,-1.126007 1.121994,-1.126007h4.460007c0.628998,0 1.138992,0.499008 1.138992,1.126007v3.429993l0,0zm3.214005,-51.965988c-3.053009,7.214996 -10.203995,12.274994 -18.520996,12.274994c-8.330002,0 -15.484009,-5.059998 -18.53801,-12.274994c-1.029999,-2.410004 -1.593002,-5.062012 -1.593002,-7.850006c0,-11.112 8.999008,-20.121994 20.130005,-20.121994c11.104996,0 20.115005,9.009995 20.115005,20.121994c0,2.785004 -0.563004,5.440002 -1.593002,7.850006zm20.25,31.763992l-0.238998,0.363998c-0.632004,0.921005 -1.664001,1.373001 -2.695007,1.298004c-0.494003,-0.031998 -0.98999,-0.186005 -1.431,-0.477997l-7.968994,-5.331009c-1.380005,-0.910995 -1.744003,-2.75499 -0.831009,-4.119995l0.239014,-0.361008c0.440994,-0.655991 1.125992,-1.110001 1.903992,-1.263992c0.764008,-0.154007 1.565994,0 2.222,0.440002l4.903,3.276001l3.065994,2.048996c0.656006,0.440994 1.112015,1.121002 1.272003,1.895996c0.161011,0.771011 -0.013992,1.574997 -0.440994,2.231003zm3.240997,-12.375992l-0.240997,0.360992c-0.897003,1.365005 -2.757996,1.725998 -4.112,0.817993l-5.583008,-3.722l-2.397995,-1.602997c-1.367004,-0.914001 -1.727997,-2.755997 -0.819992,-4.125992l0.095993,-0.138l0.145996,-0.21701c0.911011,-1.366989 2.758011,-1.735992 4.125,-0.822998l7.966003,5.325012c1.371002,0.911987 1.744995,2.756989 0.820999,4.125zm10.208008,-7.747009l-0.258011,0.361008c-0.427002,0.65799 -1.112,1.108994 -1.886993,1.263992c-0.762009,0.158997 -1.583008,-0.002991 -2.238007,-0.440994l-7.970001,-5.328003c-1.363998,-0.910995 -1.727997,-2.757996 -0.814987,-4.123001l0.241989,-0.360992c0.427002,-0.653 1.112,-1.110001 1.888,-1.261002c0.778,-0.157013 1.57901,0.001999 2.238007,0.437988l7.966995,5.331009c1.365997,0.910995 1.727005,2.761002 0.833008,4.119995z" fill="#58595B"/>
  </g>
 </g>
</svg>