<?xml version="1.0" encoding="utf-8"?>
<!-- Generator: Adobe Illustrator 16.0.0, SVG Export Plug-In . SVG Version: 6.00 Build 0)  -->
<!DOCTYPE svg PUBLIC "-//W3C//DTD SVG 1.1//EN" "http://www.w3.org/Graphics/SVG/1.1/DTD/svg11.dtd">
<svg version="1.1" id="Layer_1" xmlns="http://www.w3.org/2000/svg" xmlns:xlink="http://www.w3.org/1999/xlink" x="0px" y="0px"
	 width="80px" height="80px" viewBox="0 0 80 80" enable-background="new 0 0 80 80" xml:space="preserve">
<g>
	<g>
		<path fill="none" stroke="#565657" stroke-miterlimit="10" d="M42.726,40.393c-0.521-0.053-1.125,0.108-1.812,0.483l3.466,3.428
			c0.361-0.521,0.517-1.083,0.466-1.684c-0.05-0.601-0.297-1.121-0.742-1.559C43.706,40.668,43.247,40.446,42.726,40.393z
			 M60.277,38.391L44.646,23.814c-1.064-0.867-3.399-0.741-3.399-0.741L58.458,39.03c2.934,1.826,0.918,5.028,0.918,5.028
			S46.015,58.534,46.269,58.67c1.146,0.61,1.566,0.39,2.535-0.568l11.539-12.635C62.708,42.144,62.406,40.358,60.277,38.391z
			 M33.405,37.65c0.077,0.486,0.287,0.9,0.63,1.239c0.314,0.312,0.701,0.506,1.16,0.585c0.459,0.08,0.964,0.011,1.515-0.206
			l-3.074-3.043C33.405,36.688,33.328,37.163,33.405,37.65z M57.533,40.078L39.158,23.72c-1.16-1.147-16.741-0.602-16.741-0.602
			s-0.959,17.686,0.04,17.831l18.233,17.058c1.183,1.171,3.1,1.171,4.282,0l11.491-12.635
			C58.071,43.548,59.567,41.389,57.533,40.078z M25.62,31.18c-1.234-1.221-1.234-3.201,0-4.424c1.234-1.222,3.236-1.222,4.471,0
			c1.234,1.223,1.234,3.203,0,4.424C28.855,32.402,26.854,32.402,25.62,31.18z M46.716,49.168l-1.617-1.601
			c-1.149,0.892-2.363,1.337-3.644,1.337c-1.279,0-2.592-0.49-3.937-1.469l2.07-2.541c0.569,0.375,1.156,0.604,1.76,0.686
			c0.604,0.083,1.143,0.041,1.617-0.123l-3.723-3.684c-1.493,0.82-2.846,1.166-4.061,1.037c-1.215-0.129-2.302-0.668-3.262-1.617
			c-0.971-0.961-1.481-2.073-1.528-3.333c-0.048-1.261,0.388-2.444,1.306-3.553l-0.88-0.87l1.289-1.275l0.88,0.871
			c1.054-0.82,2.125-1.244,3.212-1.271s2.152,0.323,3.194,1.05l-1.955,2.516c-0.835-0.557-1.665-0.674-2.488-0.352l3.475,3.438
			c1.806-1.025,3.275-1.49,4.403-1.394s2.173,0.62,3.132,1.569c1.072,1.062,1.652,2.276,1.737,3.644
			c0.087,1.369-0.365,2.707-1.354,4.015l1.661,1.644L46.716,49.168z"/>
	</g>
</g>
<g>
	<path fill="#565657" d="M40,1.5c21.229,0,38.5,17.271,38.5,38.5c0,21.229-17.271,38.5-38.5,38.5C18.771,78.5,1.5,61.229,1.5,40
		C1.5,18.771,18.771,1.5,40,1.5 M40,0.5C18.185,0.5,0.5,18.185,0.5,40S18.185,79.5,40,79.5S79.5,61.815,79.5,40S61.815,0.5,40,0.5
		L40,0.5z"/>
</g>
</svg>
